<?xml version="1.0" encoding="utf-8"?>
<svg version="1.1" xmlns="http://www.w3.org/2000/svg" x="0px" y="0px"
	 viewBox="0 0 64 64" style="enable-background:new 0 0 64 64;" xml:space="preserve">
<style type="text/css">
	.st0{fill:#2C2C2C;}
</style>
<path class="st0" d="M35.5,31.2L62.3,4.3c1.2-1.2,1.1-3.1-0.1-4.3c-1.2-1.1-3-1.1-4.2,0L31.2,26.9L4.3,0.1C3.1-1.1,1.2-1.1,0.1,0.1
	c-1.1,1.2-1.1,3,0,4.2l26.9,26.9L0.1,58.1c-1.2,1.2-1.1,3.1,0.1,4.3c1.2,1.1,3,1.1,4.2,0l26.9-26.9l26.9,26.9c1.2,1.2,3.1,1.2,4.3,0
	c0,0,0,0,0,0c1.2-1.2,1.2-3.1,0-4.3L35.5,31.2z"/>
</svg>
