<?xml version="1.0" encoding="utf-8"?>
<svg version="1.1" xmlns="http://www.w3.org/2000/svg" x="0px" y="0px"
	 viewBox="0 0 64 64" style="enable-background:new 0 0 64 64;" xml:space="preserve">
<style type="text/css">
	.st0{fill:#231815;}
</style>
<path class="st0" d="M50.3,21.2h-3v-6.1c0-8.5-6.7-15.2-15.2-15.2c-8.5,0-15.2,6.7-15.2,15.2v6.1h-3c-3.4,0-6.1,2.7-6.1,6.1v30.5
	c0,3.3,2.7,6.1,6.1,6.1h36.6c3.4,0,6.1-2.7,6.1-6.1V27.3C56.4,24,53.6,21.2,50.3,21.2 M32,5.7c5.2,0,9.5,4.3,9.5,9.4v6.1H22.8v-6.1
	h-0.3C22.5,10,26.8,5.7,32,5.7 M50.3,57.8H13.7V27.3h36.6L50.3,57.8z M32,48.7c3.4,0,6.1-2.7,6.1-6.1c0-3.4-2.7-6.1-6.1-6.1
	c-3.4,0-6.1,2.7-6.1,6.1C25.9,45.9,28.6,48.7,32,48.7"/>
</svg>
