<?xml version="1.0" encoding="utf-8"?>
<svg version="1.1" xmlns="http://www.w3.org/2000/svg" x="0px" y="0px"
	 viewBox="0 0 64 64" style="enable-background:new 0 0 64 64;" xml:space="preserve">
<style type="text/css">
	.st0{fill:#2C2C2C;}
</style>
<path class="st0" d="M44.4,35.4c0,0-7.7,2-13.1,11.1c0.4,0.1,14.3,14.2,14.3,14.2c2.5,2.4,6.6,2.4,9.1,0l3.6-3.5
	c2.5-2.4,2.5-6.4,0-8.8L44.4,35.4z M50.7,58.2c-0.6,0.6-1.7,0.6-2.3,0L36.8,46.9c-0.6-0.6-0.6-1.6,0-2.2c0.6-0.6,1.7-0.6,2.3,0
	L50.7,56C51.3,56.6,51.3,57.6,50.7,58.2z M55.8,53.2c-0.6,0.6-1.7,0.6-2.3,0L41.8,41.9c-0.6-0.6-0.6-1.6,0-2.2
	c0.6-0.6,1.7-0.6,2.3,0l11.7,11.3C56.4,51.6,56.4,52.6,55.8,53.2z M15,21.1l9.5,9.4l4.5-4.4l-9.5-9.4l2.3-2.2L9.1,2.2L0,11
	l12.7,12.3L15,21.1z"/>
<path class="st0" d="M44.9,28.6c0.4,0.1,0.6,0.2,1,0.4c1.7,0.5,3.5,0.7,5.2,0.6c3.2-0.3,6.4-1.6,8.8-4.1c2.9-2.9,4.3-6.8,4.1-10.6
	c0-0.1,0-0.3,0-0.4h-6.3l-2.5,2.5l-1.9,1.9l-1.9,1.9l-5.2-1.4l-1.4-5.2l1.9-1.9l1.9-1.9l2.5-2.5V1.6c-0.1,0-0.4,0-0.5,0
	C46.8,1.4,42.9,2.8,40,5.6c-2.5,2.5-3.8,5.6-4.1,8.8c-0.1,1.9,0.1,3.9,0.7,5.7c0,0,0,0.1,0,0.1c0.2,0.6,0.2,1.4-0.6,2.2
	c-1,1-31.2,29.6-31.2,29.6c-2.5,2.1-2.3,6.1,0,8.5c2.4,2.3,6.3,2.5,8.5,0c0,0,28.4-30.1,29.6-31.3C43.7,28.7,44.3,28.6,44.9,28.6z
	 M10.7,57.7c-0.8,0.8-2,0.8-2.9,0c-0.8-0.8-0.8-2,0-2.9c0.8-0.8,2-0.8,2.9,0C11.4,55.7,11.4,56.9,10.7,57.7z"/>
</svg>
