<?xml version="1.0" encoding="utf-8"?>
<svg version="1.1" xmlns="http://www.w3.org/2000/svg" x="0px" y="0px"
	 viewBox="0 0 64 64" style="enable-background:new 0 0 64 64;" xml:space="preserve">
<style type="text/css">
	.st0{fill:#231815;}
</style>
<path class="st0" d="M32,48.8c3.4,0,6.1-2.7,6.1-6.1c0-3.3-2.7-6.1-6.1-6.1c-3.4,0-6.1,2.7-6.1,6.1C25.9,46,28.6,48.8,32,48.8
	 M50.3,21.3h-3v-6.1C47.2,6.7,40.5,0,32,0c-8.5,0-15.2,6.7-15.2,15.2h5.8c0-5.2,4.3-9.4,9.4-9.4c5.2,0,9.4,4.3,9.4,9.4v6.1H13.7
	c-3.4,0-6.1,2.7-6.1,6.1v30.5c0,3.4,2.7,6.1,6.1,6.1h36.6c3.4,0,6.1-2.7,6.1-6.1V27.4C56.4,24.1,53.6,21.3,50.3,21.3 M50.3,57.9
	H13.7V27.4h36.6V57.9z"/>
</svg>
