<svg id="a91b2c15-6db7-4e35-80a9-aa39b15756de" data-name="layer" xmlns="http://www.w3.org/2000/svg" xmlns:xlink="http://www.w3.org/1999/xlink" viewBox="0 0 200 200"><defs><style>.baf3a5e6-d0e4-4eb4-9d57-d6cdb3c2ffda{fill:url(#b5f2b7f6-14e0-4ce2-b4b4-c4aad9c0c0a1);}.be1eea39-bce6-4852-9b9d-29bf8a55461d{fill:#fff;}.b876f778-339a-45ee-bbe8-61fdfcca934c{isolation:isolate;}</style><radialGradient id="b5f2b7f6-14e0-4ce2-b4b4-c4aad9c0c0a1" cx="-85" cy="558.89" r="398.1" gradientTransform="translate(0 -642)" gradientUnits="userSpaceOnUse"><stop offset="0" stop-color="#fff"/><stop offset="0.08" stop-color="#d0e3f1"/><stop offset="0.17" stop-color="#a0c7e3"/><stop offset="0.26" stop-color="#75aed6"/><stop offset="0.36" stop-color="#5199cb"/><stop offset="0.46" stop-color="#3387c2"/><stop offset="0.57" stop-color="#1d7abc"/><stop offset="0.69" stop-color="#0d70b7"/><stop offset="0.82" stop-color="#036bb4"/><stop offset="1" stop-color="#0069b3"/></radialGradient></defs><path class="baf3a5e6-d0e4-4eb4-9d57-d6cdb3c2ffda" d="M150,200H50A50,50,0,0,1,0,150V50A50,50,0,0,1,50,0H150a50,50,0,0,1,50,50V150A50,50,0,0,1,150,200Z" transform="translate(0 0)"/><path class="be1eea39-bce6-4852-9b9d-29bf8a55461d" d="M73.5,98.1,59.6,84.2a59.63,59.63,0,0,1,84.2,0L129.9,98.1a39.81,39.81,0,0,0-28.2-11.7A39.23,39.23,0,0,0,73.5,98.1Z" transform="translate(0 0)"/><path class="be1eea39-bce6-4852-9b9d-29bf8a55461d" d="M161.2,66.8a84.26,84.26,0,0,0-119,0L28.4,53A103.57,103.57,0,0,1,175,53Z" transform="translate(0 0)"/><g class="b876f778-339a-45ee-bbe8-61fdfcca934c"><path class="be1eea39-bce6-4852-9b9d-29bf8a55461d" d="M44,139.45h-5.8L26.92,122.27a21.67,21.67,0,0,1-1.27-2.16h-.08q.15,1.36.15,4.23v15.11H20.35V112.89h6.18l10.84,16.7c.72,1.11,1.16,1.81,1.32,2.11h.08A25.92,25.92,0,0,1,38.6,128V112.89H44Z" transform="translate(0 0)"/><path class="be1eea39-bce6-4852-9b9d-29bf8a55461d" d="M65.28,117.52H55.8v6.82h8.73V129H55.8v10.48H50.14V112.89H65.28Z" transform="translate(0 0)"/><path class="be1eea39-bce6-4852-9b9d-29bf8a55461d" d="M88.69,138.49a17.19,17.19,0,0,1-7.56,1.42q-6,0-9.53-3.59a13.08,13.08,0,0,1-3.52-9.58A14.07,14.07,0,0,1,72,116.45a13.63,13.63,0,0,1,10.16-4,18.34,18.34,0,0,1,6.52,1v5.47a11.84,11.84,0,0,0-6.1-1.57,8.13,8.13,0,0,0-6.23,2.48,9.15,9.15,0,0,0-2.33,6.5,8.92,8.92,0,0,0,2.21,6.3,7.81,7.81,0,0,0,6,2.38,12.44,12.44,0,0,0,6.46-1.72Z" transform="translate(0 0)"/><path class="be1eea39-bce6-4852-9b9d-29bf8a55461d" d="M111.72,117.52h-7.58v21.93H98.47V117.52H90.9v-4.63h20.82Z" transform="translate(0 0)"/><path class="be1eea39-bce6-4852-9b9d-29bf8a55461d" d="M110.21,130.05A9.67,9.67,0,0,1,113,122.7a10.42,10.42,0,0,1,7.53-2.68,10,10,0,0,1,7.27,2.63,9.45,9.45,0,0,1,2.7,7.08,10.59,10.59,0,0,1-17.59,7.53A9.6,9.6,0,0,1,110.21,130.05Zm5.61-.07q0,5.69,4.63,5.68,4.44,0,4.44-5.83c0-3.7-1.49-5.56-4.47-5.56a4.09,4.09,0,0,0-3.39,1.5A6.5,6.5,0,0,0,115.82,130Z" transform="translate(0 0)"/><path class="be1eea39-bce6-4852-9b9d-29bf8a55461d" d="M133.29,130.05a9.67,9.67,0,0,1,2.81-7.35,10.43,10.43,0,0,1,7.53-2.68,10,10,0,0,1,7.27,2.63,9.45,9.45,0,0,1,2.7,7.08A10.59,10.59,0,0,1,136,137.26,9.6,9.6,0,0,1,133.29,130.05Zm5.61-.07q0,5.69,4.63,5.68,4.44,0,4.44-5.83c0-3.7-1.49-5.56-4.47-5.56a4.11,4.11,0,0,0-3.39,1.5A6.5,6.5,0,0,0,138.9,130Z" transform="translate(0 0)"/><path class="be1eea39-bce6-4852-9b9d-29bf8a55461d" d="M157.42,139.45V111.38h5.52v28.07Z" transform="translate(0 0)"/><path class="be1eea39-bce6-4852-9b9d-29bf8a55461d" d="M167.4,134.36a10.75,10.75,0,0,0,5.57,1.73c2.29,0,3.43-.61,3.43-1.84,0-.86-.94-1.59-2.83-2.17a12,12,0,0,1-4.85-2.45A5,5,0,0,1,167.4,126a5.07,5.07,0,0,1,2.27-4.38A10.07,10.07,0,0,1,175.6,120a16.51,16.51,0,0,1,5,.77v4.36a9.41,9.41,0,0,0-4.87-1.31,4.08,4.08,0,0,0-2.12.48,1.4,1.4,0,0,0-.81,1.24c0,.87.8,1.57,2.4,2.11a25.26,25.26,0,0,1,3.87,1.56,5,5,0,0,1,2,1.85,5.16,5.16,0,0,1,.68,2.66,5.23,5.23,0,0,1-2.35,4.55,10.89,10.89,0,0,1-6.28,1.62,16.26,16.26,0,0,1-5.71-1Z" transform="translate(0 0)"/></g><g class="b876f778-339a-45ee-bbe8-61fdfcca934c"><path class="be1eea39-bce6-4852-9b9d-29bf8a55461d" d="M94.62,168a16.2,16.2,0,0,1-8.2,1.93q-5.44,0-8.59-3.06a11.15,11.15,0,0,1-3.14-8.36,11.68,11.68,0,0,1,3.46-8.76,12.51,12.51,0,0,1,9.12-3.37,17.92,17.92,0,0,1,6.37,1V152a12.65,12.65,0,0,0-6.47-1.54,7,7,0,0,0-5.34,2.14,9.1,9.1,0,0,0-.2,11.23,6.53,6.53,0,0,0,5,2,7.11,7.11,0,0,0,3.1-.59V160.6h-4.6v-3.9h9.45Z" transform="translate(0 0)"/><path class="be1eea39-bce6-4852-9b9d-29bf8a55461d" d="M117.52,159.76q0,10.19-9.46,10.19-9.15,0-9.15-9.92V146.78h4.87v13.27c0,3.8,1.49,5.69,4.48,5.69s4.41-1.82,4.41-5.48V146.78h4.85Z" transform="translate(0 0)"/><path class="be1eea39-bce6-4852-9b9d-29bf8a55461d" d="M127.35,146.78v22.77H122.5V146.78Z" transform="translate(0 0)"/></g></svg>