<?xml version="1.0" encoding="utf-8"?>
<svg version="1.1" xmlns="http://www.w3.org/2000/svg" x="0px" y="0px"
	 viewBox="0 0 64 64" style="enable-background:new 0 0 64 64;" xml:space="preserve">
<style type="text/css">
	.st0{fill:#2C2C2C;}
</style>
<path class="st0" d="M56.6,64H7.4C3.3,64,0,60.7,0,56.6V7.4C0,3.3,3.3,0,7.4,0h44.3c0.6,0,1.2,0.2,1.7,0.7l9.8,9.8
	c0.5,0.5,0.7,1.1,0.7,1.7v44.3C64,60.7,60.7,64,56.6,64z M7.4,4.9C6,4.9,4.9,6,4.9,7.4v49.2c0,1.4,1.1,2.5,2.5,2.5h49.2
	c1.4,0,2.5-1.1,2.5-2.5V13.3l-8.4-8.4H7.4z M49.2,64H14.8c-1.4,0-2.5-1.1-2.5-2.5V42.1c0-4.2,3.4-7.6,7.6-7.6h24.2
	c4.2,0,7.6,3.4,7.6,7.6v19.4C51.7,62.9,50.6,64,49.2,64z M17.2,59.1h29.5v-17c0-1.5-1.2-2.7-2.7-2.7H19.9c-1.5,0-2.7,1.2-2.7,2.7
	V59.1z M41.5,24.6h-19c-3.6,0-6.5-3-6.5-6.5V2.5C16,1.1,17.1,0,18.5,0h27.1C46.9,0,48,1.1,48,2.5v15.6C48,21.7,45,24.6,41.5,24.6z
	 M20.9,4.9v13.2c0,0.9,0.7,1.6,1.6,1.6h19c0.9,0,1.6-0.7,1.6-1.6V4.9H20.9z M36.9,16c-1.4,0-2.5-1.1-2.5-2.5v-2.5
	c0-1.4,1.1-2.5,2.5-2.5s2.5,1.1,2.5,2.5v2.5C39.4,14.9,38.3,16,36.9,16z"/>
</svg>
