<?xml version="1.0" encoding="utf-8"?>
<svg version="1.1" xmlns="http://www.w3.org/2000/svg" x="0px" y="0px"
	 viewBox="0 0 64 64" style="enable-background:new 0 0 64 64;" xml:space="preserve">
<style type="text/css">
	.st0{fill:#2C2C2C;}
</style>
<path class="st0" d="M31.8,63.9c-15,0-27.3-12.3-27.3-27.3S16.8,9.2,31.8,9.2s27.3,12.3,27.3,27.3S46.9,63.9,31.8,63.9z M31.8,13.9
	C19.3,13.9,9.1,24,9.1,36.6s10.2,22.7,22.7,22.7s22.7-10.2,22.7-22.7C54.5,24.1,44.3,13.9,31.8,13.9z M39.8,4.2h-16
	c-1.2,0-2.2-1-2.2-2.2s1-2.2,2.2-2.2h16C41-0.1,42,0.8,42,2C42.1,3.2,41.1,4.2,39.8,4.2z"/>
<path class="st0" d="M29.6,37.5v-16c0-1.2,1-2.2,2.2-2.2c1.2,0,2.2,1,2.2,2.2v16c0,1.2-1,2.2-2.2,2.2S29.6,38.7,29.6,37.5z"/>
<path class="st0" d="M45.7,14.7c0,1.6,1.3,3,3,3s3-1.3,3-3s-1.3-3-3-3S45.7,13.1,45.7,14.7z"/>
</svg>
