<?xml version="1.0" encoding="utf-8"?>
<svg version="1.1" xmlns="http://www.w3.org/2000/svg" x="0px" y="0px"
	 viewBox="0 0 64 64" style="enable-background:new 0 0 64 64;" xml:space="preserve">
<style type="text/css">
	.st0{fill:#2C2C2C;}
</style>
<g>
	<path class="st0" d="M10.3,17.5c1.3,0,2.4,1.1,2.4,2.4v34.3c0,2.6,2.1,4.8,4.8,4.8c0,0,0,0,0,0h28.9c2.6,0,4.8-2.1,4.8-4.8l0,0V20
		c0-1.3,1.1-2.4,2.4-2.4c1.3,0,2.4,1.1,2.4,2.4v34.3c0,5.3-4.3,9.7-9.7,9.7H17.5c-5.3,0-9.7-4.3-9.7-9.7V20
		C7.9,18.6,9,17.5,10.3,17.5z"/>
	<path class="st0" d="M23,12.1c1.3,0,2.4-1.1,2.4-2.4c0-2.6,2.1-4.8,4.8-4.8c0,0,0,0,0,0h3.6c2.6,0,4.8,2.1,4.8,4.8c0,0,0,0,0,0
		c0,1.3,1.1,2.4,2.4,2.4c1.3,0,2.4-1.1,2.4-2.4c0-5.3-4.3-9.6-9.5-9.7h-3.9c-5.3,0.1-9.5,4.4-9.5,9.7C20.5,11,21.6,12.1,23,12.1z"/>
	<path class="st0" d="M2.4,11.9c0-1.3,1.1-2.4,2.4-2.4c0,0,0,0,0,0h54.2c1.3,0,2.4,1.1,2.4,2.4c0,1.3-1.1,2.4-2.4,2.4H4.9
		C3.5,14.3,2.4,13.2,2.4,11.9z"/>
	<path class="st0" d="M24.8,20.7c1.3,0,2.4,1.1,2.4,2.4v27.1c0,1.3-1.1,2.4-2.4,2.4c-1.3,0-2.4-1.1-2.4-2.4V23.2
		C22.3,21.8,23.4,20.7,24.8,20.7z"/>
	<path class="st0" d="M39.2,20.7c1.3,0,2.4,1.1,2.4,2.4v27.1c0,1.3-1.1,2.4-2.4,2.4c-1.3,0-2.4-1.1-2.4-2.4V23.2
		C36.8,21.8,37.9,20.7,39.2,20.7z"/>
</g>
</svg>
